<mxfile host="Electron" agent="Mozilla/5.0 (Windows NT 10.0; Win64; x64) AppleWebKit/537.36 (KHTML, like Gecko) draw.io/28.2.5 Chrome/138.0.7204.251 Electron/37.6.1 Safari/537.36" version="28.2.5">
  <diagram name="Página-1" id="cZDXr3bajGrflIqHMzH1">
    <mxGraphModel dx="995" dy="1367" grid="1" gridSize="10" guides="1" tooltips="1" connect="1" arrows="1" fold="1" page="1" pageScale="1" pageWidth="827" pageHeight="1169" math="0" shadow="0">
      <root>
        <mxCell id="0" />
        <mxCell id="1" parent="0" />
        <mxCell id="NUTZ7ALA5O81cGV3BF1x-3" style="edgeStyle=orthogonalEdgeStyle;rounded=0;orthogonalLoop=1;jettySize=auto;html=1;entryX=0.5;entryY=0;entryDx=0;entryDy=0;" parent="1" source="NUTZ7ALA5O81cGV3BF1x-1" target="NUTZ7ALA5O81cGV3BF1x-2" edge="1">
          <mxGeometry relative="1" as="geometry" />
        </mxCell>
        <mxCell id="NUTZ7ALA5O81cGV3BF1x-1" value="Início" style="ellipse;whiteSpace=wrap;html=1;" parent="1" vertex="1">
          <mxGeometry x="260" y="40" width="120" height="80" as="geometry" />
        </mxCell>
        <mxCell id="CyZNYPOrm-Hvp6EGQ7Z2-6" style="edgeStyle=orthogonalEdgeStyle;rounded=0;orthogonalLoop=1;jettySize=auto;html=1;entryX=0.5;entryY=0;entryDx=0;entryDy=0;" edge="1" parent="1" source="NUTZ7ALA5O81cGV3BF1x-2" target="CyZNYPOrm-Hvp6EGQ7Z2-1">
          <mxGeometry relative="1" as="geometry" />
        </mxCell>
        <mxCell id="NUTZ7ALA5O81cGV3BF1x-2" value="&lt;div&gt;Configurar o pino 2 como entrada para o botão 1&lt;/div&gt;" style="rounded=0;whiteSpace=wrap;html=1;" parent="1" vertex="1">
          <mxGeometry x="260" y="160" width="120" height="60" as="geometry" />
        </mxCell>
        <mxCell id="NUTZ7ALA5O81cGV3BF1x-10" style="edgeStyle=orthogonalEdgeStyle;rounded=0;orthogonalLoop=1;jettySize=auto;html=1;entryX=0.5;entryY=0;entryDx=0;entryDy=0;" parent="1" source="NUTZ7ALA5O81cGV3BF1x-4" target="NUTZ7ALA5O81cGV3BF1x-6" edge="1">
          <mxGeometry relative="1" as="geometry" />
        </mxCell>
        <mxCell id="NUTZ7ALA5O81cGV3BF1x-4" value="Repetir sempre" style="rhombus;whiteSpace=wrap;html=1;" parent="1" vertex="1">
          <mxGeometry x="245" y="760" width="150" height="80" as="geometry" />
        </mxCell>
        <mxCell id="NUTZ7ALA5O81cGV3BF1x-11" style="edgeStyle=orthogonalEdgeStyle;rounded=0;orthogonalLoop=1;jettySize=auto;html=1;entryX=0.5;entryY=0;entryDx=0;entryDy=0;" parent="1" source="NUTZ7ALA5O81cGV3BF1x-6" edge="1">
          <mxGeometry relative="1" as="geometry">
            <mxPoint x="320" y="980" as="targetPoint" />
          </mxGeometry>
        </mxCell>
        <mxCell id="NUTZ7ALA5O81cGV3BF1x-6" value="&lt;div&gt;Ler botão 1 pelo pino 2&lt;/div&gt;" style="rounded=0;whiteSpace=wrap;html=1;" parent="1" vertex="1">
          <mxGeometry x="260" y="880" width="120" height="60" as="geometry" />
        </mxCell>
        <mxCell id="NUTZ7ALA5O81cGV3BF1x-14" value="Fim" style="ellipse;whiteSpace=wrap;html=1;" parent="1" vertex="1">
          <mxGeometry x="260" y="1900" width="120" height="80" as="geometry" />
        </mxCell>
        <mxCell id="NUTZ7ALA5O81cGV3BF1x-16" value="" style="endArrow=classic;html=1;rounded=0;entryX=0;entryY=0.5;entryDx=0;entryDy=0;" parent="1" target="NUTZ7ALA5O81cGV3BF1x-4" edge="1">
          <mxGeometry width="50" height="50" relative="1" as="geometry">
            <mxPoint x="320" y="1870" as="sourcePoint" />
            <mxPoint x="240" y="800" as="targetPoint" />
            <Array as="points">
              <mxPoint x="160" y="1870" />
              <mxPoint x="160" y="1260" />
              <mxPoint x="160" y="800" />
            </Array>
          </mxGeometry>
        </mxCell>
        <mxCell id="CyZNYPOrm-Hvp6EGQ7Z2-7" style="edgeStyle=orthogonalEdgeStyle;rounded=0;orthogonalLoop=1;jettySize=auto;html=1;entryX=0.5;entryY=0;entryDx=0;entryDy=0;" edge="1" parent="1" source="CyZNYPOrm-Hvp6EGQ7Z2-1" target="CyZNYPOrm-Hvp6EGQ7Z2-2">
          <mxGeometry relative="1" as="geometry" />
        </mxCell>
        <mxCell id="CyZNYPOrm-Hvp6EGQ7Z2-1" value="&lt;div&gt;Configurar o pino 3 como entrada para o botão 2&lt;/div&gt;" style="rounded=0;whiteSpace=wrap;html=1;" vertex="1" parent="1">
          <mxGeometry x="260" y="260" width="120" height="60" as="geometry" />
        </mxCell>
        <mxCell id="CyZNYPOrm-Hvp6EGQ7Z2-8" style="edgeStyle=orthogonalEdgeStyle;rounded=0;orthogonalLoop=1;jettySize=auto;html=1;entryX=0.5;entryY=0;entryDx=0;entryDy=0;" edge="1" parent="1" source="CyZNYPOrm-Hvp6EGQ7Z2-2" target="CyZNYPOrm-Hvp6EGQ7Z2-3">
          <mxGeometry relative="1" as="geometry" />
        </mxCell>
        <mxCell id="CyZNYPOrm-Hvp6EGQ7Z2-2" value="&lt;div&gt;Configurar o pino 4 como entrada para o botão 3&lt;/div&gt;" style="rounded=0;whiteSpace=wrap;html=1;" vertex="1" parent="1">
          <mxGeometry x="260" y="360" width="120" height="60" as="geometry" />
        </mxCell>
        <mxCell id="CyZNYPOrm-Hvp6EGQ7Z2-9" style="edgeStyle=orthogonalEdgeStyle;rounded=0;orthogonalLoop=1;jettySize=auto;html=1;entryX=0.5;entryY=0;entryDx=0;entryDy=0;" edge="1" parent="1" source="CyZNYPOrm-Hvp6EGQ7Z2-3" target="CyZNYPOrm-Hvp6EGQ7Z2-4">
          <mxGeometry relative="1" as="geometry" />
        </mxCell>
        <mxCell id="CyZNYPOrm-Hvp6EGQ7Z2-3" value="&lt;div&gt;Configurar o pino 11 como saída para o led 3&lt;/div&gt;" style="rounded=0;whiteSpace=wrap;html=1;" vertex="1" parent="1">
          <mxGeometry x="260" y="460" width="120" height="60" as="geometry" />
        </mxCell>
        <mxCell id="CyZNYPOrm-Hvp6EGQ7Z2-11" style="edgeStyle=orthogonalEdgeStyle;rounded=0;orthogonalLoop=1;jettySize=auto;html=1;entryX=0.5;entryY=0;entryDx=0;entryDy=0;" edge="1" parent="1" source="CyZNYPOrm-Hvp6EGQ7Z2-4" target="CyZNYPOrm-Hvp6EGQ7Z2-5">
          <mxGeometry relative="1" as="geometry" />
        </mxCell>
        <mxCell id="CyZNYPOrm-Hvp6EGQ7Z2-4" value="&lt;div&gt;Configurar o pino 12 como saída para o led 2&lt;/div&gt;" style="rounded=0;whiteSpace=wrap;html=1;" vertex="1" parent="1">
          <mxGeometry x="260" y="560" width="120" height="60" as="geometry" />
        </mxCell>
        <mxCell id="CyZNYPOrm-Hvp6EGQ7Z2-12" style="edgeStyle=orthogonalEdgeStyle;rounded=0;orthogonalLoop=1;jettySize=auto;html=1;entryX=0.5;entryY=0;entryDx=0;entryDy=0;" edge="1" parent="1" source="CyZNYPOrm-Hvp6EGQ7Z2-5" target="NUTZ7ALA5O81cGV3BF1x-4">
          <mxGeometry relative="1" as="geometry" />
        </mxCell>
        <mxCell id="CyZNYPOrm-Hvp6EGQ7Z2-5" value="&lt;div&gt;Configurar o pino 13 como saída para o led 1&lt;/div&gt;" style="rounded=0;whiteSpace=wrap;html=1;" vertex="1" parent="1">
          <mxGeometry x="260" y="660" width="120" height="60" as="geometry" />
        </mxCell>
        <mxCell id="CyZNYPOrm-Hvp6EGQ7Z2-15" style="edgeStyle=orthogonalEdgeStyle;rounded=0;orthogonalLoop=1;jettySize=auto;html=1;entryX=0.5;entryY=0;entryDx=0;entryDy=0;" edge="1" parent="1" source="CyZNYPOrm-Hvp6EGQ7Z2-13" target="CyZNYPOrm-Hvp6EGQ7Z2-14">
          <mxGeometry relative="1" as="geometry" />
        </mxCell>
        <mxCell id="CyZNYPOrm-Hvp6EGQ7Z2-20" style="edgeStyle=orthogonalEdgeStyle;rounded=0;orthogonalLoop=1;jettySize=auto;html=1;entryX=0.5;entryY=0;entryDx=0;entryDy=0;" edge="1" parent="1" source="CyZNYPOrm-Hvp6EGQ7Z2-13" target="CyZNYPOrm-Hvp6EGQ7Z2-17">
          <mxGeometry relative="1" as="geometry" />
        </mxCell>
        <mxCell id="CyZNYPOrm-Hvp6EGQ7Z2-13" value="Se&amp;nbsp;&lt;span style=&quot;background-color: transparent; color: light-dark(rgb(0, 0, 0), rgb(255, 255, 255));&quot;&gt;botão 1 for pressionado&lt;/span&gt;" style="rhombus;whiteSpace=wrap;html=1;" vertex="1" parent="1">
          <mxGeometry x="260" y="980" width="120" height="80" as="geometry" />
        </mxCell>
        <mxCell id="CyZNYPOrm-Hvp6EGQ7Z2-30" style="edgeStyle=orthogonalEdgeStyle;rounded=0;orthogonalLoop=1;jettySize=auto;html=1;entryX=0.5;entryY=0;entryDx=0;entryDy=0;" edge="1" parent="1" source="CyZNYPOrm-Hvp6EGQ7Z2-14" target="CyZNYPOrm-Hvp6EGQ7Z2-22">
          <mxGeometry relative="1" as="geometry" />
        </mxCell>
        <mxCell id="CyZNYPOrm-Hvp6EGQ7Z2-14" value="&lt;div&gt;Desligar led 1 pelo pino 13&lt;/div&gt;" style="rounded=0;whiteSpace=wrap;html=1;" vertex="1" parent="1">
          <mxGeometry x="260" y="1100" width="120" height="60" as="geometry" />
        </mxCell>
        <mxCell id="CyZNYPOrm-Hvp6EGQ7Z2-16" value="Se sim" style="text;html=1;align=center;verticalAlign=middle;whiteSpace=wrap;rounded=0;" vertex="1" parent="1">
          <mxGeometry x="320" y="1060" width="60" height="30" as="geometry" />
        </mxCell>
        <mxCell id="CyZNYPOrm-Hvp6EGQ7Z2-31" style="edgeStyle=orthogonalEdgeStyle;rounded=0;orthogonalLoop=1;jettySize=auto;html=1;" edge="1" parent="1" source="CyZNYPOrm-Hvp6EGQ7Z2-17">
          <mxGeometry relative="1" as="geometry">
            <mxPoint x="320" y="1190" as="targetPoint" />
            <Array as="points">
              <mxPoint x="500" y="1190" />
            </Array>
          </mxGeometry>
        </mxCell>
        <mxCell id="CyZNYPOrm-Hvp6EGQ7Z2-17" value="Ligar led 1 pelo pino 13" style="rounded=0;whiteSpace=wrap;html=1;" vertex="1" parent="1">
          <mxGeometry x="440" y="1100" width="120" height="60" as="geometry" />
        </mxCell>
        <mxCell id="CyZNYPOrm-Hvp6EGQ7Z2-19" value="Se não" style="text;html=1;align=center;verticalAlign=middle;whiteSpace=wrap;rounded=0;" vertex="1" parent="1">
          <mxGeometry x="380" y="990" width="60" height="30" as="geometry" />
        </mxCell>
        <mxCell id="CyZNYPOrm-Hvp6EGQ7Z2-21" style="edgeStyle=orthogonalEdgeStyle;rounded=0;orthogonalLoop=1;jettySize=auto;html=1;entryX=0.5;entryY=0;entryDx=0;entryDy=0;" edge="1" parent="1" source="CyZNYPOrm-Hvp6EGQ7Z2-22">
          <mxGeometry relative="1" as="geometry">
            <mxPoint x="320" y="1338" as="targetPoint" />
          </mxGeometry>
        </mxCell>
        <mxCell id="CyZNYPOrm-Hvp6EGQ7Z2-22" value="&lt;div&gt;Ler botão 2 pelo pino 3&lt;/div&gt;" style="rounded=0;whiteSpace=wrap;html=1;" vertex="1" parent="1">
          <mxGeometry x="260" y="1220" width="120" height="60" as="geometry" />
        </mxCell>
        <mxCell id="CyZNYPOrm-Hvp6EGQ7Z2-23" style="edgeStyle=orthogonalEdgeStyle;rounded=0;orthogonalLoop=1;jettySize=auto;html=1;entryX=0.5;entryY=0;entryDx=0;entryDy=0;" edge="1" parent="1" source="CyZNYPOrm-Hvp6EGQ7Z2-25" target="CyZNYPOrm-Hvp6EGQ7Z2-26">
          <mxGeometry relative="1" as="geometry" />
        </mxCell>
        <mxCell id="CyZNYPOrm-Hvp6EGQ7Z2-24" style="edgeStyle=orthogonalEdgeStyle;rounded=0;orthogonalLoop=1;jettySize=auto;html=1;entryX=0.5;entryY=0;entryDx=0;entryDy=0;" edge="1" parent="1" source="CyZNYPOrm-Hvp6EGQ7Z2-25" target="CyZNYPOrm-Hvp6EGQ7Z2-28">
          <mxGeometry relative="1" as="geometry" />
        </mxCell>
        <mxCell id="CyZNYPOrm-Hvp6EGQ7Z2-25" value="Se&amp;nbsp;&lt;span style=&quot;background-color: transparent; color: light-dark(rgb(0, 0, 0), rgb(255, 255, 255));&quot;&gt;botão 2 for pressionado&lt;/span&gt;" style="rhombus;whiteSpace=wrap;html=1;" vertex="1" parent="1">
          <mxGeometry x="260" y="1320" width="120" height="80" as="geometry" />
        </mxCell>
        <mxCell id="CyZNYPOrm-Hvp6EGQ7Z2-41" style="edgeStyle=orthogonalEdgeStyle;rounded=0;orthogonalLoop=1;jettySize=auto;html=1;entryX=0.5;entryY=0;entryDx=0;entryDy=0;" edge="1" parent="1" source="CyZNYPOrm-Hvp6EGQ7Z2-26" target="CyZNYPOrm-Hvp6EGQ7Z2-33">
          <mxGeometry relative="1" as="geometry" />
        </mxCell>
        <mxCell id="CyZNYPOrm-Hvp6EGQ7Z2-26" value="&lt;div&gt;Desligar led 2 pelo pino 12&lt;/div&gt;" style="rounded=0;whiteSpace=wrap;html=1;" vertex="1" parent="1">
          <mxGeometry x="260" y="1440" width="120" height="60" as="geometry" />
        </mxCell>
        <mxCell id="CyZNYPOrm-Hvp6EGQ7Z2-27" value="Se sim" style="text;html=1;align=center;verticalAlign=middle;whiteSpace=wrap;rounded=0;" vertex="1" parent="1">
          <mxGeometry x="320" y="1400" width="60" height="30" as="geometry" />
        </mxCell>
        <mxCell id="CyZNYPOrm-Hvp6EGQ7Z2-43" style="edgeStyle=orthogonalEdgeStyle;rounded=0;orthogonalLoop=1;jettySize=auto;html=1;" edge="1" parent="1" source="CyZNYPOrm-Hvp6EGQ7Z2-28">
          <mxGeometry relative="1" as="geometry">
            <mxPoint x="320" y="1530" as="targetPoint" />
            <Array as="points">
              <mxPoint x="500" y="1530" />
            </Array>
          </mxGeometry>
        </mxCell>
        <mxCell id="CyZNYPOrm-Hvp6EGQ7Z2-28" value="Ligar led 2 pelo pino 12" style="rounded=0;whiteSpace=wrap;html=1;" vertex="1" parent="1">
          <mxGeometry x="440" y="1440" width="120" height="60" as="geometry" />
        </mxCell>
        <mxCell id="CyZNYPOrm-Hvp6EGQ7Z2-29" value="Se não" style="text;html=1;align=center;verticalAlign=middle;whiteSpace=wrap;rounded=0;" vertex="1" parent="1">
          <mxGeometry x="380" y="1330" width="60" height="30" as="geometry" />
        </mxCell>
        <mxCell id="CyZNYPOrm-Hvp6EGQ7Z2-32" style="edgeStyle=orthogonalEdgeStyle;rounded=0;orthogonalLoop=1;jettySize=auto;html=1;entryX=0.5;entryY=0;entryDx=0;entryDy=0;" edge="1" parent="1" source="CyZNYPOrm-Hvp6EGQ7Z2-33">
          <mxGeometry relative="1" as="geometry">
            <mxPoint x="320" y="1654" as="targetPoint" />
          </mxGeometry>
        </mxCell>
        <mxCell id="CyZNYPOrm-Hvp6EGQ7Z2-33" value="&lt;div&gt;Ler botão 3 pelo pino 4&lt;/div&gt;" style="rounded=0;whiteSpace=wrap;html=1;" vertex="1" parent="1">
          <mxGeometry x="260" y="1554" width="120" height="60" as="geometry" />
        </mxCell>
        <mxCell id="CyZNYPOrm-Hvp6EGQ7Z2-34" style="edgeStyle=orthogonalEdgeStyle;rounded=0;orthogonalLoop=1;jettySize=auto;html=1;entryX=0.5;entryY=0;entryDx=0;entryDy=0;" edge="1" parent="1" source="CyZNYPOrm-Hvp6EGQ7Z2-36" target="CyZNYPOrm-Hvp6EGQ7Z2-37">
          <mxGeometry relative="1" as="geometry" />
        </mxCell>
        <mxCell id="CyZNYPOrm-Hvp6EGQ7Z2-35" style="edgeStyle=orthogonalEdgeStyle;rounded=0;orthogonalLoop=1;jettySize=auto;html=1;entryX=0.5;entryY=0;entryDx=0;entryDy=0;" edge="1" parent="1" source="CyZNYPOrm-Hvp6EGQ7Z2-36">
          <mxGeometry relative="1" as="geometry">
            <mxPoint x="500" y="1774" as="targetPoint" />
          </mxGeometry>
        </mxCell>
        <mxCell id="CyZNYPOrm-Hvp6EGQ7Z2-36" value="Se&amp;nbsp;&lt;span style=&quot;background-color: transparent; color: light-dark(rgb(0, 0, 0), rgb(255, 255, 255));&quot;&gt;botão 3 for pressionado&lt;/span&gt;" style="rhombus;whiteSpace=wrap;html=1;" vertex="1" parent="1">
          <mxGeometry x="260" y="1654" width="120" height="80" as="geometry" />
        </mxCell>
        <mxCell id="CyZNYPOrm-Hvp6EGQ7Z2-42" style="edgeStyle=orthogonalEdgeStyle;rounded=0;orthogonalLoop=1;jettySize=auto;html=1;entryX=0.5;entryY=0;entryDx=0;entryDy=0;" edge="1" parent="1" source="CyZNYPOrm-Hvp6EGQ7Z2-37" target="NUTZ7ALA5O81cGV3BF1x-14">
          <mxGeometry relative="1" as="geometry" />
        </mxCell>
        <mxCell id="CyZNYPOrm-Hvp6EGQ7Z2-37" value="&lt;div&gt;Desligar led 3 pelo pino 11&lt;/div&gt;" style="rounded=0;whiteSpace=wrap;html=1;" vertex="1" parent="1">
          <mxGeometry x="260" y="1774" width="120" height="60" as="geometry" />
        </mxCell>
        <mxCell id="CyZNYPOrm-Hvp6EGQ7Z2-38" value="Se sim" style="text;html=1;align=center;verticalAlign=middle;whiteSpace=wrap;rounded=0;" vertex="1" parent="1">
          <mxGeometry x="320" y="1734" width="60" height="30" as="geometry" />
        </mxCell>
        <mxCell id="CyZNYPOrm-Hvp6EGQ7Z2-44" style="edgeStyle=orthogonalEdgeStyle;rounded=0;orthogonalLoop=1;jettySize=auto;html=1;exitX=0.5;exitY=1;exitDx=0;exitDy=0;" edge="1" parent="1" source="CyZNYPOrm-Hvp6EGQ7Z2-39">
          <mxGeometry relative="1" as="geometry">
            <mxPoint x="320" y="1870" as="targetPoint" />
            <mxPoint x="500" y="1834" as="sourcePoint" />
            <Array as="points">
              <mxPoint x="500" y="1870" />
            </Array>
          </mxGeometry>
        </mxCell>
        <mxCell id="CyZNYPOrm-Hvp6EGQ7Z2-39" value="Ligar led 3 pelo pino 11" style="rounded=0;whiteSpace=wrap;html=1;" vertex="1" parent="1">
          <mxGeometry x="440" y="1760" width="120" height="60" as="geometry" />
        </mxCell>
        <mxCell id="CyZNYPOrm-Hvp6EGQ7Z2-40" value="Se não" style="text;html=1;align=center;verticalAlign=middle;whiteSpace=wrap;rounded=0;" vertex="1" parent="1">
          <mxGeometry x="380" y="1664" width="60" height="30" as="geometry" />
        </mxCell>
      </root>
    </mxGraphModel>
  </diagram>
</mxfile>
